<svg width="135" height="180" viewBox="0 0 135 180" fill="none" xmlns="http://www.w3.org/2000/svg">
<path d="M39.1636 104.027C37.9332 110.777 33.0464 142.242 31.605 151.137C31.4996 151.77 31.2535 152.016 30.5503 152.016H4.3238C1.65193 152.016 -0.281669 149.695 0.0698929 147.129L20.6714 16.3828C21.1988 13.0078 24.2222 10.4414 27.7027 10.4414C81.2457 10.4414 85.7457 9.1406 99.4214 14.4492C120.55 22.6406 122.484 42.3984 114.89 63.7734C107.332 85.7812 89.4022 95.2379 65.6363 95.5192C50.3785 95.7654 41.2027 93.0584 39.1636 104.027ZM125.543 53.4374C124.91 52.9804 124.664 52.8046 124.488 53.8945C123.785 57.9023 122.695 61.8046 121.394 65.707C107.367 105.714 68.4839 102.235 49.4996 102.235C47.355 102.235 45.9488 103.395 45.6675 105.539C37.7222 154.898 36.1402 165.199 36.1402 165.199C35.7886 167.695 37.3707 169.734 39.8668 169.734H62.191C65.2145 169.734 67.7106 167.519 68.3082 164.496C68.5543 162.598 67.9214 166.64 73.3707 132.398C74.9879 124.664 78.3981 125.472 83.6714 125.472C108.632 125.472 128.109 115.347 133.91 85.9924C136.195 73.7578 135.527 60.8906 125.543 53.4374Z" fill="#1A55AE"/>
</svg>
