<svg width="60" height="46" viewBox="0 0 60 46" fill="none" xmlns="http://www.w3.org/2000/svg">
<path d="M55.0125 27.0716L59.9368 8.38413C60.2923 7.03486 59.1032 5.75 57.499 5.75H16.5842L15.6294 1.7241C15.3915 0.720637 14.3677 0 13.1801 0H2.5C1.11927 0 0 0.965371 0 2.15625V3.59375C0 4.78463 1.11927 5.75 2.5 5.75H9.77948L17.097 36.6055C15.3464 37.4738 14.1667 39.102 14.1667 40.9688C14.1667 43.7474 16.7783 46 20 46C23.2217 46 25.8333 43.7474 25.8333 40.9688C25.8333 39.5605 25.1618 38.2883 24.0808 37.375H45.9191C44.8382 38.2883 44.1667 39.5605 44.1667 40.9688C44.1667 43.7474 46.7783 46 50 46C53.2217 46 55.8333 43.7474 55.8333 40.9688C55.8333 38.9767 54.4908 37.2553 52.5439 36.4402L53.1186 34.2591C53.4741 32.9099 52.285 31.625 50.6807 31.625H22.7205L22.0388 28.75H52.5747C53.742 28.75 54.7539 28.0534 55.0125 27.0716Z" fill="#28888D"/>
</svg>
