<svg width="213" height="178" viewBox="0 0 213 178" fill="none" xmlns="http://www.w3.org/2000/svg">
<path d="M207.675 122.375H202.35V84.7934C202.35 80.3781 200.653 76.1367 197.657 73.0078L164.41 38.277C161.414 35.148 157.354 33.375 153.127 33.375H138.45V16.6875C138.45 7.47461 131.294 0 122.475 0H15.975C7.15547 0 0 7.47461 0 16.6875V127.938C0 137.15 7.15547 144.625 15.975 144.625H21.3C21.3 163.051 35.611 178 53.25 178C70.889 178 85.2 163.051 85.2 144.625H127.8C127.8 163.051 142.111 178 159.75 178C177.389 178 191.7 163.051 191.7 144.625H207.675C210.604 144.625 213 142.122 213 139.062V127.938C213 124.878 210.604 122.375 207.675 122.375ZM53.25 161.312C44.4305 161.312 37.275 153.838 37.275 144.625C37.275 135.412 44.4305 127.938 53.25 127.938C62.0695 127.938 69.225 135.412 69.225 144.625C69.225 153.838 62.0695 161.312 53.25 161.312ZM159.75 161.312C150.931 161.312 143.775 153.838 143.775 144.625C143.775 135.412 150.931 127.938 159.75 127.938C168.569 127.938 175.725 135.412 175.725 144.625C175.725 153.838 168.569 161.312 159.75 161.312ZM186.375 89H138.45V50.0625H153.127L186.375 84.7934V89Z" fill="url(#paint0_linear)"/>
<defs>
<linearGradient id="paint0_linear" x1="251.002" y1="89" x2="-29.5573" y2="89" gradientUnits="userSpaceOnUse">
<stop stop-color="#27C8D2"/>
<stop offset="0.0001" stop-color="#1AD6BF"/>
<stop offset="1" stop-color="#C6DC41"/>
</linearGradient>
</defs>
</svg>
