<svg width="196" height="178" viewBox="0 0 196 178" fill="none" xmlns="http://www.w3.org/2000/svg">
<g clip-path="url(#clip0)">
<path d="M179.707 104.755L195.794 32.4429C196.955 27.2218 193.07 22.25 187.83 22.25H54.1749L51.056 6.67152C50.2788 2.78855 46.9345 0 43.055 0H8.16667C3.65628 0 0 3.73557 0 8.34375V13.9062C0 18.5144 3.65628 22.25 8.16667 22.25H31.9463L55.8502 141.647C50.1315 145.007 46.2778 151.308 46.2778 158.531C46.2778 169.284 54.8092 178 65.3333 178C75.8574 178 84.3889 169.284 84.3889 158.531C84.3889 153.082 82.1951 148.159 78.6641 144.625H150.003C146.472 148.159 144.278 153.082 144.278 158.531C144.278 169.284 152.809 178 163.333 178C173.858 178 182.389 169.284 182.389 158.531C182.389 150.823 178.003 144.162 171.644 141.008L173.521 132.568C174.682 127.347 170.798 122.375 165.557 122.375H74.2203L71.9933 111.25H171.744C175.557 111.25 178.862 108.554 179.707 104.755Z" fill="#EBE444"/>
</g>
<defs>
<clipPath id="clip0">
<rect width="196" height="178" fill="white"/>
</clipPath>
</defs>
</svg>
